<mxfile host="app.diagrams.net" modified="2022-10-25T10:44:39.537Z" agent="5.0 (X11; Linux x86_64) AppleWebKit/537.36 (KHTML, like Gecko) Chrome/106.0.0.0 Safari/537.36" etag="7zP3IUHfpyjvqzxaD3Wt" version="20.5.0" type="github">
  <diagram id="jumFTKBNU3ek5qj8tCCc" name="Страница 1">
    <mxGraphModel dx="1348" dy="773" grid="1" gridSize="10" guides="1" tooltips="1" connect="1" arrows="1" fold="1" page="1" pageScale="1" pageWidth="1169" pageHeight="827" math="0" shadow="0">
      <root>
        <mxCell id="0" />
        <mxCell id="1" parent="0" />
        <mxCell id="IotK319sl3dYngyr4wlI-1" value="signup" style="whiteSpace=wrap;html=1;aspect=fixed;" vertex="1" parent="1">
          <mxGeometry x="40" y="200" width="80" height="80" as="geometry" />
        </mxCell>
        <mxCell id="IotK319sl3dYngyr4wlI-62" value="" style="edgeStyle=orthogonalEdgeStyle;rounded=0;orthogonalLoop=1;jettySize=auto;html=1;strokeColor=#04BF10;" edge="1" parent="1" source="IotK319sl3dYngyr4wlI-3" target="IotK319sl3dYngyr4wlI-61">
          <mxGeometry relative="1" as="geometry" />
        </mxCell>
        <mxCell id="IotK319sl3dYngyr4wlI-3" value="recovery" style="whiteSpace=wrap;html=1;aspect=fixed;" vertex="1" parent="1">
          <mxGeometry x="40" y="900" width="80" height="80" as="geometry" />
        </mxCell>
        <mxCell id="IotK319sl3dYngyr4wlI-42" style="edgeStyle=orthogonalEdgeStyle;rounded=0;orthogonalLoop=1;jettySize=auto;html=1;exitX=1;exitY=0.5;exitDx=0;exitDy=0;strokeColor=#04BF10;" edge="1" parent="1" source="IotK319sl3dYngyr4wlI-4">
          <mxGeometry relative="1" as="geometry">
            <mxPoint x="200" y="640" as="targetPoint" />
          </mxGeometry>
        </mxCell>
        <mxCell id="IotK319sl3dYngyr4wlI-4" value="login" style="whiteSpace=wrap;html=1;aspect=fixed;" vertex="1" parent="1">
          <mxGeometry x="40" y="600" width="80" height="80" as="geometry" />
        </mxCell>
        <mxCell id="IotK319sl3dYngyr4wlI-5" value="" style="endArrow=classic;html=1;rounded=0;" edge="1" parent="1">
          <mxGeometry width="50" height="50" relative="1" as="geometry">
            <mxPoint x="120" y="240" as="sourcePoint" />
            <mxPoint x="200" y="240" as="targetPoint" />
            <Array as="points">
              <mxPoint x="120" y="240" />
            </Array>
          </mxGeometry>
        </mxCell>
        <mxCell id="IotK319sl3dYngyr4wlI-6" value="Проверка на наличие ключа &quot;msg&quot;" style="rhombus;whiteSpace=wrap;html=1;" vertex="1" parent="1">
          <mxGeometry x="200" y="182.5" width="120" height="115" as="geometry" />
        </mxCell>
        <mxCell id="IotK319sl3dYngyr4wlI-7" value="" style="endArrow=classic;html=1;rounded=0;exitX=0.5;exitY=1;exitDx=0;exitDy=0;fillColor=#dae8fc;strokeColor=#04BF10;" edge="1" parent="1" source="IotK319sl3dYngyr4wlI-6">
          <mxGeometry width="50" height="50" relative="1" as="geometry">
            <mxPoint x="410" y="370" as="sourcePoint" />
            <mxPoint x="260" y="330" as="targetPoint" />
            <Array as="points" />
          </mxGeometry>
        </mxCell>
        <mxCell id="IotK319sl3dYngyr4wlI-9" value="вывод содержимого ключа &quot;msg&quot;" style="shape=tape;whiteSpace=wrap;html=1;strokeWidth=2;size=0.19" vertex="1" parent="1">
          <mxGeometry x="220" y="330" width="100" height="80" as="geometry" />
        </mxCell>
        <mxCell id="IotK319sl3dYngyr4wlI-10" value="" style="endArrow=none;html=1;rounded=0;strokeColor=#04BF10;" edge="1" parent="1">
          <mxGeometry width="50" height="50" relative="1" as="geometry">
            <mxPoint x="320" y="360" as="sourcePoint" />
            <mxPoint x="360" y="240" as="targetPoint" />
            <Array as="points">
              <mxPoint x="360" y="360" />
            </Array>
          </mxGeometry>
        </mxCell>
        <mxCell id="IotK319sl3dYngyr4wlI-11" value="" style="endArrow=classic;html=1;rounded=0;exitX=1;exitY=0.5;exitDx=0;exitDy=0;strokeColor=#FF0000;" edge="1" parent="1" source="IotK319sl3dYngyr4wlI-6">
          <mxGeometry width="50" height="50" relative="1" as="geometry">
            <mxPoint x="410" y="350" as="sourcePoint" />
            <mxPoint x="400" y="240" as="targetPoint" />
          </mxGeometry>
        </mxCell>
        <mxCell id="IotK319sl3dYngyr4wlI-16" value="" style="edgeStyle=orthogonalEdgeStyle;rounded=0;orthogonalLoop=1;jettySize=auto;html=1;" edge="1" parent="1" source="IotK319sl3dYngyr4wlI-13">
          <mxGeometry relative="1" as="geometry">
            <mxPoint x="600" y="240" as="targetPoint" />
          </mxGeometry>
        </mxCell>
        <mxCell id="IotK319sl3dYngyr4wlI-13" value="Ввод данных для регистрации" style="shape=parallelogram;html=1;strokeWidth=2;perimeter=parallelogramPerimeter;whiteSpace=wrap;rounded=1;arcSize=12;size=0.23;" vertex="1" parent="1">
          <mxGeometry x="390" y="210" width="160" height="60" as="geometry" />
        </mxCell>
        <mxCell id="IotK319sl3dYngyr4wlI-18" value="" style="edgeStyle=orthogonalEdgeStyle;rounded=0;orthogonalLoop=1;jettySize=auto;html=1;strokeColor=#FF0000;" edge="1" parent="1" source="IotK319sl3dYngyr4wlI-15" target="IotK319sl3dYngyr4wlI-17">
          <mxGeometry relative="1" as="geometry" />
        </mxCell>
        <mxCell id="IotK319sl3dYngyr4wlI-38" style="edgeStyle=orthogonalEdgeStyle;rounded=0;orthogonalLoop=1;jettySize=auto;html=1;exitX=1;exitY=0.5;exitDx=0;exitDy=0;entryX=0;entryY=0.5;entryDx=0;entryDy=0;strokeColor=#04BF10;" edge="1" parent="1" source="IotK319sl3dYngyr4wlI-15" target="IotK319sl3dYngyr4wlI-20">
          <mxGeometry relative="1" as="geometry" />
        </mxCell>
        <mxCell id="IotK319sl3dYngyr4wlI-15" value="Валидация данных" style="rhombus;whiteSpace=wrap;html=1;strokeWidth=2;rounded=1;arcSize=12;" vertex="1" parent="1">
          <mxGeometry x="600" y="200" width="100" height="80" as="geometry" />
        </mxCell>
        <mxCell id="IotK319sl3dYngyr4wlI-17" value="Добавление ключа &quot;msg&quot; в сессию в соответствие с ошибкой" style="whiteSpace=wrap;html=1;strokeWidth=2;rounded=1;arcSize=12;" vertex="1" parent="1">
          <mxGeometry x="590" y="50" width="120" height="60" as="geometry" />
        </mxCell>
        <mxCell id="IotK319sl3dYngyr4wlI-19" value="" style="endArrow=classic;html=1;rounded=0;strokeColor=#FF0000;exitX=0;exitY=0.5;exitDx=0;exitDy=0;" edge="1" parent="1" source="IotK319sl3dYngyr4wlI-17">
          <mxGeometry width="50" height="50" relative="1" as="geometry">
            <mxPoint x="590" y="200" as="sourcePoint" />
            <mxPoint x="80" y="200" as="targetPoint" />
            <Array as="points">
              <mxPoint x="80" y="80" />
            </Array>
          </mxGeometry>
        </mxCell>
        <mxCell id="IotK319sl3dYngyr4wlI-39" style="edgeStyle=orthogonalEdgeStyle;rounded=0;orthogonalLoop=1;jettySize=auto;html=1;exitX=1;exitY=0.5;exitDx=0;exitDy=0;entryX=0;entryY=0.5;entryDx=0;entryDy=0;strokeColor=#04BF10;" edge="1" parent="1" source="IotK319sl3dYngyr4wlI-20" target="IotK319sl3dYngyr4wlI-24">
          <mxGeometry relative="1" as="geometry" />
        </mxCell>
        <mxCell id="IotK319sl3dYngyr4wlI-20" value="Хеширование пароля и секретного ключа" style="whiteSpace=wrap;html=1;strokeWidth=2;rounded=1;arcSize=12;" vertex="1" parent="1">
          <mxGeometry x="760" y="210" width="130" height="60" as="geometry" />
        </mxCell>
        <mxCell id="IotK319sl3dYngyr4wlI-34" value="" style="edgeStyle=orthogonalEdgeStyle;rounded=0;orthogonalLoop=1;jettySize=auto;html=1;strokeColor=#04BF10;entryX=0;entryY=0.5;entryDx=0;entryDy=0;" edge="1" parent="1" source="IotK319sl3dYngyr4wlI-24" target="IotK319sl3dYngyr4wlI-36">
          <mxGeometry relative="1" as="geometry">
            <mxPoint x="790" y="470" as="targetPoint" />
          </mxGeometry>
        </mxCell>
        <mxCell id="IotK319sl3dYngyr4wlI-40" style="edgeStyle=orthogonalEdgeStyle;rounded=0;orthogonalLoop=1;jettySize=auto;html=1;exitX=0.5;exitY=0;exitDx=0;exitDy=0;entryX=1;entryY=0.5;entryDx=0;entryDy=0;entryPerimeter=0;strokeColor=#FF0000;" edge="1" parent="1" source="IotK319sl3dYngyr4wlI-24" target="IotK319sl3dYngyr4wlI-30">
          <mxGeometry relative="1" as="geometry" />
        </mxCell>
        <mxCell id="IotK319sl3dYngyr4wlI-41" style="edgeStyle=orthogonalEdgeStyle;rounded=0;orthogonalLoop=1;jettySize=auto;html=1;exitX=0.5;exitY=1;exitDx=0;exitDy=0;entryX=0.5;entryY=0;entryDx=0;entryDy=0;entryPerimeter=0;strokeColor=#04BF10;" edge="1" parent="1" source="IotK319sl3dYngyr4wlI-24" target="IotK319sl3dYngyr4wlI-28">
          <mxGeometry relative="1" as="geometry" />
        </mxCell>
        <mxCell id="IotK319sl3dYngyr4wlI-24" value="INSERT INTO..." style="whiteSpace=wrap;html=1;strokeWidth=2;rounded=1;arcSize=12;dashed=1;" vertex="1" parent="1">
          <mxGeometry x="1000" y="210" width="120" height="60" as="geometry" />
        </mxCell>
        <mxCell id="IotK319sl3dYngyr4wlI-28" value="БД" style="strokeWidth=2;html=1;shape=mxgraph.flowchart.database;whiteSpace=wrap;" vertex="1" parent="1">
          <mxGeometry x="1030" y="320" width="60" height="60" as="geometry" />
        </mxCell>
        <mxCell id="IotK319sl3dYngyr4wlI-30" value="Вывод сообщения об ошибке записи в бд или о сбое подключения" style="shape=tape;whiteSpace=wrap;html=1;strokeWidth=2;size=0.19" vertex="1" parent="1">
          <mxGeometry x="810" y="100" width="190" height="70" as="geometry" />
        </mxCell>
        <mxCell id="IotK319sl3dYngyr4wlI-36" value="profile" style="whiteSpace=wrap;html=1;aspect=fixed;" vertex="1" parent="1">
          <mxGeometry x="1240" y="600" width="80" height="80" as="geometry" />
        </mxCell>
        <mxCell id="IotK319sl3dYngyr4wlI-45" value="" style="edgeStyle=orthogonalEdgeStyle;rounded=0;orthogonalLoop=1;jettySize=auto;html=1;strokeColor=#04BF10;" edge="1" parent="1" source="IotK319sl3dYngyr4wlI-43" target="IotK319sl3dYngyr4wlI-44">
          <mxGeometry relative="1" as="geometry" />
        </mxCell>
        <mxCell id="IotK319sl3dYngyr4wlI-47" value="" style="edgeStyle=orthogonalEdgeStyle;rounded=0;orthogonalLoop=1;jettySize=auto;html=1;strokeColor=#FF0000;" edge="1" parent="1" source="IotK319sl3dYngyr4wlI-43" target="IotK319sl3dYngyr4wlI-46">
          <mxGeometry relative="1" as="geometry" />
        </mxCell>
        <mxCell id="IotK319sl3dYngyr4wlI-43" value="Проверка на наличие ключа &quot;msg&quot;" style="strokeWidth=2;html=1;shape=mxgraph.flowchart.decision;whiteSpace=wrap;" vertex="1" parent="1">
          <mxGeometry x="200" y="580" width="120" height="120" as="geometry" />
        </mxCell>
        <mxCell id="IotK319sl3dYngyr4wlI-44" value="Вывод содержимого ключа &quot;msg&quot;" style="shape=tape;whiteSpace=wrap;html=1;strokeWidth=2;size=0.2;" vertex="1" parent="1">
          <mxGeometry x="200" y="720" width="120" height="80" as="geometry" />
        </mxCell>
        <mxCell id="IotK319sl3dYngyr4wlI-50" value="" style="edgeStyle=orthogonalEdgeStyle;rounded=0;orthogonalLoop=1;jettySize=auto;html=1;strokeColor=#000000;" edge="1" parent="1" source="IotK319sl3dYngyr4wlI-46" target="IotK319sl3dYngyr4wlI-49">
          <mxGeometry relative="1" as="geometry" />
        </mxCell>
        <mxCell id="IotK319sl3dYngyr4wlI-46" value="Ввод данных для входа" style="shape=parallelogram;perimeter=parallelogramPerimeter;whiteSpace=wrap;html=1;fixedSize=1;strokeWidth=2;" vertex="1" parent="1">
          <mxGeometry x="400" y="610" width="130" height="60" as="geometry" />
        </mxCell>
        <mxCell id="IotK319sl3dYngyr4wlI-48" value="" style="endArrow=none;html=1;rounded=0;strokeColor=#04BF10;" edge="1" parent="1">
          <mxGeometry width="50" height="50" relative="1" as="geometry">
            <mxPoint x="320" y="760" as="sourcePoint" />
            <mxPoint x="360" y="640" as="targetPoint" />
            <Array as="points">
              <mxPoint x="360" y="760" />
            </Array>
          </mxGeometry>
        </mxCell>
        <mxCell id="IotK319sl3dYngyr4wlI-52" value="" style="edgeStyle=orthogonalEdgeStyle;rounded=0;orthogonalLoop=1;jettySize=auto;html=1;strokeColor=#FF0000;" edge="1" parent="1" source="IotK319sl3dYngyr4wlI-49" target="IotK319sl3dYngyr4wlI-51">
          <mxGeometry relative="1" as="geometry" />
        </mxCell>
        <mxCell id="IotK319sl3dYngyr4wlI-55" value="" style="edgeStyle=orthogonalEdgeStyle;rounded=0;orthogonalLoop=1;jettySize=auto;html=1;strokeColor=#04BF10;" edge="1" parent="1" source="IotK319sl3dYngyr4wlI-49" target="IotK319sl3dYngyr4wlI-54">
          <mxGeometry relative="1" as="geometry" />
        </mxCell>
        <mxCell id="IotK319sl3dYngyr4wlI-49" value="Валидация данных" style="rhombus;whiteSpace=wrap;html=1;strokeWidth=2;" vertex="1" parent="1">
          <mxGeometry x="650" y="595" width="105" height="90" as="geometry" />
        </mxCell>
        <mxCell id="IotK319sl3dYngyr4wlI-53" style="edgeStyle=orthogonalEdgeStyle;rounded=0;orthogonalLoop=1;jettySize=auto;html=1;exitX=0;exitY=0.5;exitDx=0;exitDy=0;entryX=0.5;entryY=0;entryDx=0;entryDy=0;strokeColor=#FF0000;" edge="1" parent="1" source="IotK319sl3dYngyr4wlI-51" target="IotK319sl3dYngyr4wlI-4">
          <mxGeometry relative="1" as="geometry" />
        </mxCell>
        <mxCell id="IotK319sl3dYngyr4wlI-51" value="Добавление ключа &quot;msg&quot; в сессию в соответствии с ошибкой" style="whiteSpace=wrap;html=1;strokeWidth=2;" vertex="1" parent="1">
          <mxGeometry x="642.5" y="500" width="120" height="60" as="geometry" />
        </mxCell>
        <mxCell id="IotK319sl3dYngyr4wlI-57" value="" style="edgeStyle=orthogonalEdgeStyle;rounded=0;orthogonalLoop=1;jettySize=auto;html=1;strokeColor=#FF0000;" edge="1" parent="1" source="IotK319sl3dYngyr4wlI-54" target="IotK319sl3dYngyr4wlI-56">
          <mxGeometry relative="1" as="geometry" />
        </mxCell>
        <mxCell id="IotK319sl3dYngyr4wlI-59" value="" style="edgeStyle=orthogonalEdgeStyle;rounded=0;orthogonalLoop=1;jettySize=auto;html=1;strokeColor=#04BF10;" edge="1" parent="1" source="IotK319sl3dYngyr4wlI-54" target="IotK319sl3dYngyr4wlI-58">
          <mxGeometry relative="1" as="geometry" />
        </mxCell>
        <mxCell id="IotK319sl3dYngyr4wlI-54" value="SELECT..." style="rounded=1;whiteSpace=wrap;html=1;strokeWidth=2;dashed=1;" vertex="1" parent="1">
          <mxGeometry x="827.5" y="610" width="120" height="60" as="geometry" />
        </mxCell>
        <mxCell id="IotK319sl3dYngyr4wlI-56" value="Вывод сообщения об ошибке записи в бд или о сбое подключения" style="shape=tape;whiteSpace=wrap;html=1;rounded=1;strokeWidth=2;size=0.2;" vertex="1" parent="1">
          <mxGeometry x="827.5" y="450" width="120" height="100" as="geometry" />
        </mxCell>
        <mxCell id="IotK319sl3dYngyr4wlI-60" style="edgeStyle=orthogonalEdgeStyle;rounded=0;orthogonalLoop=1;jettySize=auto;html=1;exitX=1;exitY=0.5;exitDx=0;exitDy=0;entryX=0;entryY=0.5;entryDx=0;entryDy=0;strokeColor=#04BF10;" edge="1" parent="1" source="IotK319sl3dYngyr4wlI-58" target="IotK319sl3dYngyr4wlI-36">
          <mxGeometry relative="1" as="geometry" />
        </mxCell>
        <mxCell id="IotK319sl3dYngyr4wlI-58" value="Создание сессии авторизованного пользователя" style="rounded=1;whiteSpace=wrap;html=1;strokeWidth=2;" vertex="1" parent="1">
          <mxGeometry x="1027.5" y="610" width="120" height="60" as="geometry" />
        </mxCell>
        <mxCell id="IotK319sl3dYngyr4wlI-64" value="" style="edgeStyle=orthogonalEdgeStyle;rounded=0;orthogonalLoop=1;jettySize=auto;html=1;strokeColor=#04BF10;" edge="1" parent="1" source="IotK319sl3dYngyr4wlI-61" target="IotK319sl3dYngyr4wlI-63">
          <mxGeometry relative="1" as="geometry" />
        </mxCell>
        <mxCell id="IotK319sl3dYngyr4wlI-66" value="" style="edgeStyle=orthogonalEdgeStyle;rounded=0;orthogonalLoop=1;jettySize=auto;html=1;strokeColor=#FF0000;" edge="1" parent="1" source="IotK319sl3dYngyr4wlI-61" target="IotK319sl3dYngyr4wlI-65">
          <mxGeometry relative="1" as="geometry" />
        </mxCell>
        <mxCell id="IotK319sl3dYngyr4wlI-61" value="Проверка на наличие ключа &quot;msg&quot;" style="rhombus;whiteSpace=wrap;html=1;strokeWidth=2;" vertex="1" parent="1">
          <mxGeometry x="190" y="890" width="120" height="100" as="geometry" />
        </mxCell>
        <mxCell id="IotK319sl3dYngyr4wlI-63" value="Вывод содержимого ключа &quot;msg&quot;" style="shape=tape;whiteSpace=wrap;html=1;size=0.2;strokeWidth=2;" vertex="1" parent="1">
          <mxGeometry x="190" y="1070" width="120" height="90" as="geometry" />
        </mxCell>
        <mxCell id="IotK319sl3dYngyr4wlI-69" value="" style="edgeStyle=orthogonalEdgeStyle;rounded=0;orthogonalLoop=1;jettySize=auto;html=1;strokeColor=#000000;" edge="1" parent="1" source="IotK319sl3dYngyr4wlI-65" target="IotK319sl3dYngyr4wlI-68">
          <mxGeometry relative="1" as="geometry" />
        </mxCell>
        <mxCell id="IotK319sl3dYngyr4wlI-65" value="Ввод данных для восстановления пароля" style="shape=parallelogram;perimeter=parallelogramPerimeter;whiteSpace=wrap;html=1;fixedSize=1;strokeWidth=2;" vertex="1" parent="1">
          <mxGeometry x="390" y="910" width="170" height="60" as="geometry" />
        </mxCell>
        <mxCell id="IotK319sl3dYngyr4wlI-67" value="" style="endArrow=none;html=1;rounded=0;strokeColor=#04BF10;exitX=1;exitY=0.5;exitDx=0;exitDy=0;exitPerimeter=0;" edge="1" parent="1" source="IotK319sl3dYngyr4wlI-63">
          <mxGeometry width="50" height="50" relative="1" as="geometry">
            <mxPoint x="330" y="1000" as="sourcePoint" />
            <mxPoint x="360" y="940" as="targetPoint" />
            <Array as="points">
              <mxPoint x="360" y="1115" />
            </Array>
          </mxGeometry>
        </mxCell>
        <mxCell id="IotK319sl3dYngyr4wlI-71" value="" style="edgeStyle=orthogonalEdgeStyle;rounded=0;orthogonalLoop=1;jettySize=auto;html=1;strokeColor=#FF0000;" edge="1" parent="1" source="IotK319sl3dYngyr4wlI-68" target="IotK319sl3dYngyr4wlI-70">
          <mxGeometry relative="1" as="geometry" />
        </mxCell>
        <mxCell id="IotK319sl3dYngyr4wlI-74" value="" style="edgeStyle=orthogonalEdgeStyle;rounded=0;orthogonalLoop=1;jettySize=auto;html=1;strokeColor=#04BF10;" edge="1" parent="1" source="IotK319sl3dYngyr4wlI-68" target="IotK319sl3dYngyr4wlI-73">
          <mxGeometry relative="1" as="geometry" />
        </mxCell>
        <mxCell id="IotK319sl3dYngyr4wlI-68" value="Валидация данных" style="rhombus;whiteSpace=wrap;html=1;strokeWidth=2;" vertex="1" parent="1">
          <mxGeometry x="680" y="895" width="95" height="90" as="geometry" />
        </mxCell>
        <mxCell id="IotK319sl3dYngyr4wlI-72" style="edgeStyle=orthogonalEdgeStyle;rounded=0;orthogonalLoop=1;jettySize=auto;html=1;exitX=0;exitY=0.5;exitDx=0;exitDy=0;entryX=0.5;entryY=0;entryDx=0;entryDy=0;strokeColor=#FF0000;" edge="1" parent="1" source="IotK319sl3dYngyr4wlI-70" target="IotK319sl3dYngyr4wlI-3">
          <mxGeometry relative="1" as="geometry" />
        </mxCell>
        <mxCell id="IotK319sl3dYngyr4wlI-70" value="Добавление ключа &quot;msg&quot; в сессию в соответствии с ошибкой" style="whiteSpace=wrap;html=1;strokeWidth=2;" vertex="1" parent="1">
          <mxGeometry x="667.5" y="820" width="120" height="60" as="geometry" />
        </mxCell>
        <mxCell id="IotK319sl3dYngyr4wlI-76" value="" style="edgeStyle=orthogonalEdgeStyle;rounded=0;orthogonalLoop=1;jettySize=auto;html=1;strokeColor=#04BF10;" edge="1" parent="1" source="IotK319sl3dYngyr4wlI-73" target="IotK319sl3dYngyr4wlI-75">
          <mxGeometry relative="1" as="geometry" />
        </mxCell>
        <mxCell id="IotK319sl3dYngyr4wlI-73" value="Хеширование пароля" style="rounded=1;whiteSpace=wrap;html=1;strokeWidth=2;" vertex="1" parent="1">
          <mxGeometry x="842.5" y="910" width="120" height="60" as="geometry" />
        </mxCell>
        <mxCell id="IotK319sl3dYngyr4wlI-78" style="edgeStyle=orthogonalEdgeStyle;rounded=0;orthogonalLoop=1;jettySize=auto;html=1;exitX=0.5;exitY=1;exitDx=0;exitDy=0;strokeColor=#04BF10;" edge="1" parent="1" source="IotK319sl3dYngyr4wlI-75" target="IotK319sl3dYngyr4wlI-77">
          <mxGeometry relative="1" as="geometry" />
        </mxCell>
        <mxCell id="IotK319sl3dYngyr4wlI-80" value="" style="edgeStyle=orthogonalEdgeStyle;rounded=0;orthogonalLoop=1;jettySize=auto;html=1;strokeColor=#04BF10;" edge="1" parent="1" source="IotK319sl3dYngyr4wlI-75" target="IotK319sl3dYngyr4wlI-79">
          <mxGeometry relative="1" as="geometry" />
        </mxCell>
        <mxCell id="IotK319sl3dYngyr4wlI-75" value="UPDATE..." style="rounded=1;whiteSpace=wrap;html=1;strokeWidth=2;dashed=1;" vertex="1" parent="1">
          <mxGeometry x="1042.5" y="910" width="120" height="60" as="geometry" />
        </mxCell>
        <mxCell id="IotK319sl3dYngyr4wlI-77" value="БД" style="strokeWidth=2;html=1;shape=mxgraph.flowchart.database;whiteSpace=wrap;" vertex="1" parent="1">
          <mxGeometry x="1072.5" y="1030" width="60" height="60" as="geometry" />
        </mxCell>
        <mxCell id="IotK319sl3dYngyr4wlI-81" style="edgeStyle=orthogonalEdgeStyle;rounded=0;orthogonalLoop=1;jettySize=auto;html=1;exitX=0.5;exitY=0;exitDx=0;exitDy=0;strokeColor=#04BF10;entryX=0.5;entryY=1;entryDx=0;entryDy=0;" edge="1" parent="1" source="IotK319sl3dYngyr4wlI-79" target="IotK319sl3dYngyr4wlI-4">
          <mxGeometry relative="1" as="geometry">
            <mxPoint x="-433" y="730" as="targetPoint" />
            <Array as="points">
              <mxPoint x="1303" y="800" />
              <mxPoint x="80" y="800" />
            </Array>
          </mxGeometry>
        </mxCell>
        <mxCell id="IotK319sl3dYngyr4wlI-79" value="Добавление ключа &quot;msg&quot; в сессию с сообщением об успехе" style="rounded=1;whiteSpace=wrap;html=1;strokeWidth=2;" vertex="1" parent="1">
          <mxGeometry x="1242.5" y="910" width="120" height="60" as="geometry" />
        </mxCell>
      </root>
    </mxGraphModel>
  </diagram>
</mxfile>
